<svg version="1.1" id="Layer_1" xmlns="http://www.w3.org/2000/svg" xmlns:xlink="http://www.w3.org/1999/xlink" x="0px" y="0px"
	 width="100%" viewBox="0 0 119 134" enable-background="new 0 0 119 134" xml:space="preserve">
<path fill="#053DB8" opacity="1.000000" stroke="none" 
	d="
M1.000000,11.000000 
	C1.000000,10.555555 1.000000,10.111111 1.468657,9.333338 
	C12.381064,9.000002 22.824833,8.988199 33.268551,9.005855 
	C37.380856,9.012808 41.759933,8.357524 43.553547,13.717279 
	C43.779411,14.392222 45.475250,14.855066 46.520374,14.918854 
	C48.827053,15.059639 51.162266,14.729429 53.469406,14.866964 
	C58.925064,15.192192 63.773026,7.156237 69.697372,13.675909 
	C69.834236,13.826525 70.585579,13.383293 71.062355,13.266125 
	C74.915199,12.319276 76.525124,14.021581 75.480438,17.890543 
	C75.012642,19.623013 74.616898,21.374937 74.169601,23.110653 
	C74.150742,23.103275 74.113190,23.094679 73.765732,23.133869 
	C72.137589,24.331255 70.992546,25.719042 69.535995,26.579546 
	C68.222923,27.355284 66.568695,27.553568 64.929893,27.939865 
	C64.794853,27.873199 64.887962,27.586754 64.713348,27.294556 
	C62.019531,25.576233 60.789429,26.631086 60.309669,29.222017 
	C60.281151,29.259113 60.198223,29.215748 59.982079,29.323828 
	C59.493832,29.616205 59.273624,29.849493 59.060474,30.085918 
	C59.015636,30.040070 59.126656,30.104231 58.925209,30.241066 
	C58.470535,30.588081 58.263992,30.836998 58.063129,31.072981 
	C58.022121,31.021313 58.126358,31.102184 57.927059,31.241796 
	C57.477650,31.595661 57.278408,31.849792 57.153038,32.176937 
	C57.176033,32.210072 57.116154,32.264130 56.765388,32.200943 
	C54.983482,32.634659 53.552341,33.131557 51.737617,33.738129 
	C48.653458,34.587421 45.952885,35.327038 43.021980,36.155762 
	C42.497967,36.397038 42.240986,36.596474 41.800682,37.100800 
	C36.666542,42.261280 31.752417,47.164131 26.673714,52.216019 
	C26.305338,52.587814 26.150036,52.840412 25.972715,53.459183 
	C20.116888,62.853569 14.331573,71.911613 7.639461,82.389435 
	C12.388381,81.089874 15.831630,80.147614 19.633478,79.107224 
	C16.954931,90.462845 14.390566,101.334396 11.692602,112.772331 
	C18.276201,112.202187 21.806923,108.865532 24.820402,104.445450 
	C25.768505,103.054802 27.658522,102.306328 29.222836,101.527832 
	C29.859936,102.780441 30.391634,103.769135 31.001097,105.092140 
	C31.906986,108.079353 32.344299,110.940193 33.627041,113.351227 
	C41.593208,128.324417 68.537987,129.550369 81.241226,125.114937 
	C80.002182,112.219795 74.760529,101.391327 65.398003,92.239006 
	C61.190498,88.125977 58.081490,82.889221 54.474037,78.162354 
	C54.841625,77.801888 55.209217,77.441422 55.576809,77.080956 
	C56.184525,77.162987 56.992523,77.022034 57.369656,77.360779 
	C62.350628,81.834732 68.455887,81.917175 74.663170,82.431900 
	C78.755920,82.771286 82.979568,84.115982 86.679382,85.949371 
	C91.202225,88.190598 95.380051,90.138863 100.282936,87.401672 
	C105.010735,84.762222 105.338608,80.415230 104.764877,75.426376 
	C104.433960,74.747787 104.195694,74.384743 103.980835,74.014572 
	C104.004227,74.007439 103.967369,74.040619 103.909546,73.745743 
	C103.475456,73.004440 103.099182,72.558006 102.799469,72.114120 
	C102.876038,72.116684 102.862137,72.269257 102.758804,72.031219 
	C102.421349,71.543556 102.187225,71.293922 101.657593,70.888123 
	C98.196060,67.283409 95.030060,63.834862 91.728699,60.129585 
	C91.301926,59.620659 91.010506,59.368458 90.794189,59.119286 
	C90.869308,59.122311 90.854034,59.271885 90.722427,59.034309 
	C90.311783,58.570751 90.032753,58.344776 89.823273,58.116489 
	C89.892838,58.114182 89.889359,58.253342 89.753212,58.017509 
	C89.341568,57.551266 89.066071,57.320847 88.522873,56.992237 
	C87.819443,56.291904 87.383720,55.689770 86.827370,54.881638 
	C86.516541,54.415001 86.283455,54.201103 85.751511,53.931602 
	C85.333282,53.510090 85.171013,53.190918 84.917519,52.585247 
	C84.391388,51.906551 83.956474,51.514359 83.334045,51.058685 
	C82.911720,50.812706 82.825562,50.576084 82.778824,50.046425 
	C82.431488,49.554070 82.193390,49.300625 81.684265,48.916031 
	C80.911865,47.934437 80.410500,47.083984 79.786263,46.001404 
	C79.411575,45.529236 79.159752,45.289196 78.671265,44.993484 
	C78.122704,44.770332 77.946800,44.510715 77.691315,43.928917 
	C77.107162,43.495663 76.738586,43.292446 76.243378,43.140457 
	C76.116745,43.191685 75.999260,42.945026 75.830162,42.769665 
	C75.407616,42.382870 75.123062,42.228943 74.849442,42.127365 
	C74.891495,42.122208 74.893387,42.206921 74.703171,41.973980 
	C73.958214,41.559746 73.403465,41.378448 72.897690,41.124100 
	C72.946663,41.051044 72.881592,41.214451 72.690353,40.979233 
	C71.938599,40.566418 71.378067,40.388817 70.853951,40.184605 
	C70.890358,40.157993 70.885300,40.248039 70.670464,39.991104 
	C69.612480,39.523602 68.769341,39.313034 67.913010,39.097084 
	C67.899826,39.091709 67.877777,39.109741 67.847603,38.748482 
	C67.128090,36.894268 66.438744,35.401318 65.616501,33.616070 
	C65.576347,32.916443 65.669098,32.509117 66.044922,31.887596 
	C67.803864,31.119476 69.279724,30.565546 70.830055,30.383194 
	C72.568794,33.005665 73.848221,36.351841 76.033592,37.119724 
	C77.473892,37.625805 80.629509,34.765678 82.282990,32.796452 
	C84.802238,29.796139 86.685913,26.262163 89.192810,22.900894 
	C94.616158,17.940344 99.573677,12.907537 104.835487,8.216011 
	C106.146866,7.046758 109.070702,5.934230 110.167206,6.595838 
	C113.829041,8.805322 116.811974,7.363107 120.000000,6.000000 
	C120.000000,48.947681 120.000000,91.895363 120.000000,134.921524 
	C80.434044,134.921524 40.867886,134.921524 1.000000,134.921524 
	C1.000000,97.979652 1.000000,60.958485 1.468657,23.468632 
	C12.043995,22.999401 22.150843,23.033325 32.257286,22.984373 
	C37.651131,22.958246 38.964535,21.578211 39.019855,16.780222 
	C39.074333,12.055878 36.420395,10.928606 32.313812,10.968260 
	C21.876745,11.069040 11.438046,11.000662 1.000000,11.000000 
z"/>
<path fill="#093EB9" opacity="1.000000" stroke="none" 
	d="
M74.188461,23.118031 
	C74.616898,21.374937 75.012642,19.623013 75.480438,17.890543 
	C76.525124,14.021581 74.915199,12.319276 71.062355,13.266125 
	C70.585579,13.383293 69.834236,13.826525 69.697372,13.675909 
	C63.773026,7.156237 58.925064,15.192192 53.469406,14.866964 
	C51.162266,14.729429 48.827053,15.059639 46.520374,14.918854 
	C45.475250,14.855066 43.779411,14.392222 43.553547,13.717279 
	C41.759933,8.357524 37.380856,9.012808 33.268551,9.005855 
	C22.824833,8.988199 12.381064,9.000002 1.468657,9.000006 
	C1.000000,6.343471 1.000000,3.686942 1.000000,1.015207 
	C40.666664,1.015207 80.333328,1.015207 120.000000,1.015245 
	C120.000000,2.343547 120.000000,3.671811 120.000000,5.500038 
	C116.811974,7.363107 113.829041,8.805322 110.167206,6.595838 
	C109.070702,5.934230 106.146866,7.046758 104.835487,8.216011 
	C99.573677,12.907537 94.616158,17.940344 89.290321,22.560341 
	C91.463135,17.256054 93.891754,12.238403 96.320381,7.220752 
	C95.679214,6.757552 95.038055,6.294352 94.396896,5.831152 
	C87.660751,11.593445 80.924606,17.355738 74.188461,23.118031 
z"/>
<path fill="#033CB9" opacity="1.000000" stroke="none" 
	d="
M1.000000,11.460636 
	C11.438046,11.000662 21.876745,11.069040 32.313812,10.968260 
	C36.420395,10.928606 39.074333,12.055878 39.019855,16.780222 
	C38.964535,21.578211 37.651131,22.958246 32.257286,22.984373 
	C22.150843,23.033325 12.043995,22.999401 1.468657,22.999973 
	C1.000000,19.307091 1.000000,15.614182 1.000000,11.460636 
z"/>
<path fill="#FBFBFD" opacity="1.000000" stroke="none" 
	d="
M86.947998,55.087631 
	C87.383720,55.689770 87.819443,56.291904 88.606415,57.266434 
	C89.268227,57.843662 89.578789,58.048500 89.889359,58.253342 
	C89.889359,58.253342 89.892838,58.114182 89.899963,58.395119 
	C90.222740,58.874668 90.538383,59.073277 90.854034,59.271885 
	C90.854034,59.271885 90.869308,59.122311 90.882904,59.411491 
	C91.219009,59.929218 91.541534,60.157761 91.864052,60.386307 
	C95.030060,63.834862 98.196060,67.283409 101.698997,71.161316 
	C102.311333,71.816856 102.586731,72.043060 102.862137,72.269257 
	C102.862137,72.269257 102.876038,72.116684 102.851616,72.411041 
	C103.207253,73.150482 103.587311,73.595551 103.967361,74.040619 
	C103.967369,74.040619 104.004227,74.007439 104.013367,74.355377 
	C104.300842,75.049522 104.579185,75.395729 104.857529,75.741928 
	C105.338608,80.415230 105.010735,84.762222 100.282936,87.401672 
	C95.380051,90.138863 91.202225,88.190598 86.679382,85.949371 
	C82.979568,84.115982 78.755920,82.771286 74.663170,82.431900 
	C68.455887,81.917175 62.350628,81.834732 57.369656,77.360779 
	C56.992523,77.022034 56.184525,77.162987 55.576809,77.080956 
	C55.209217,77.441422 54.841625,77.801888 54.474037,78.162354 
	C58.081490,82.889221 61.190498,88.125977 65.398003,92.239006 
	C74.760529,101.391327 80.002182,112.219795 81.241226,125.114937 
	C68.537987,129.550369 41.593208,128.324417 33.627041,113.351227 
	C32.344299,110.940193 31.906986,108.079353 31.072151,104.659393 
	C30.579573,88.924316 32.687450,74.319283 37.159645,60.064957 
	C37.118309,60.078995 37.153149,60.159050 37.426754,59.973274 
	C38.382912,58.165024 39.065464,56.542549 39.928467,54.623840 
	C40.901573,53.292309 41.672195,52.239231 42.490566,51.224670 
	C46.929642,45.721394 53.682137,41.997299 55.653667,34.257385 
	C56.302227,33.490353 56.709190,32.877239 57.116154,32.264130 
	C57.116154,32.264130 57.176033,32.210072 57.429199,32.134483 
	C57.830364,31.739988 57.978359,31.421085 58.126358,31.102184 
	C58.126358,31.102184 58.022121,31.021313 58.341164,31.036076 
	C58.815693,30.735302 58.971172,30.419765 59.126656,30.104231 
	C59.126656,30.104231 59.015636,30.040070 59.334400,30.063084 
	C59.834850,29.795980 60.016537,29.505865 60.198227,29.215748 
	C60.198223,29.215748 60.281151,29.259113 60.613472,29.166618 
	C62.259853,28.578335 63.573906,28.082542 64.887962,27.586754 
	C64.887962,27.586754 64.794853,27.873199 64.901604,28.291174 
	C65.259521,29.840027 65.510681,30.970907 65.761841,32.101788 
	C65.669098,32.509117 65.576347,32.916443 65.439346,33.928535 
	C65.034096,36.703564 64.229736,39.114349 67.877777,39.109741 
	C67.877777,39.109741 67.899826,39.091709 68.123924,39.349693 
	C69.193779,39.821133 70.039543,40.034584 70.885300,40.248039 
	C70.885300,40.248039 70.890358,40.157993 71.023956,40.435661 
	C71.732231,40.880367 72.306915,41.047409 72.881592,41.214455 
	C72.881592,41.214451 72.946663,41.051044 73.062057,41.377144 
	C73.749428,41.871140 74.321404,42.039028 74.893387,42.206917 
	C74.893387,42.206921 74.891495,42.122208 74.957726,42.370773 
	C75.349060,42.727905 75.674156,42.836468 75.999260,42.945026 
	C75.999260,42.945026 76.116745,43.191685 76.412621,43.426888 
	C77.107964,43.827709 77.507423,43.993332 77.906891,44.158958 
	C77.946800,44.510715 78.122704,44.770332 78.745163,45.259560 
	C79.340202,45.798717 79.624672,46.016125 79.909134,46.233532 
	C80.410500,47.083984 80.911865,47.934437 81.730576,49.191055 
	C82.327965,49.826591 82.608017,50.055962 82.888069,50.285332 
	C82.825562,50.576084 82.911720,50.812706 83.434097,51.342461 
	C84.150688,52.083729 84.579712,52.477737 85.008736,52.871742 
	C85.171013,53.190918 85.333282,53.510090 85.801498,54.185631 
	C86.387627,54.723877 86.667816,54.905754 86.947998,55.087631 
M67.343338,57.159557 
	C66.490761,61.000565 69.201515,61.363483 71.740913,61.204025 
	C72.744614,61.140995 73.656143,59.610043 74.609634,58.747475 
	C72.758430,57.779743 70.926529,56.770252 69.032501,55.895206 
	C68.785660,55.781162 68.219246,56.358818 67.343338,57.159557 
z"/>
<path fill="#702BF9" opacity="1.000000" stroke="none" 
	d="
M55.412071,34.411308 
	C53.682137,41.997299 46.929642,45.721394 42.490566,51.224670 
	C41.672195,52.239231 40.901573,53.292309 39.613998,54.751060 
	C38.463768,56.836025 37.808460,58.497536 37.153149,60.159050 
	C37.153149,60.159050 37.118309,60.078995 36.842117,60.241730 
	C34.727356,66.997887 32.400490,73.502846 31.185478,80.209236 
	C29.932468,87.125343 29.761696,94.237534 29.117432,101.263931 
	C27.658522,102.306328 25.768505,103.054802 24.820402,104.445450 
	C21.806923,108.865532 18.276201,112.202187 11.692602,112.772331 
	C14.390566,101.334396 16.954931,90.462845 19.633478,79.107224 
	C15.831630,80.147614 12.388381,81.089874 7.639461,82.389435 
	C14.331573,71.911613 20.116888,62.853569 26.153515,53.321320 
	C26.628023,52.630779 26.772511,52.370735 26.838291,52.066982 
	C31.752417,47.164131 36.666542,42.261280 42.038055,37.031883 
	C42.803417,36.558464 43.055706,36.345570 43.252316,36.066654 
	C45.952885,35.327038 48.653458,34.587421 52.153893,33.814896 
	C53.773193,33.991768 54.592632,34.201538 55.412071,34.411308 
z"/>
<path fill="#7033F6" opacity="1.000000" stroke="none" 
	d="
M74.169601,23.110653 
	C80.924606,17.355738 87.660751,11.593445 94.396896,5.831152 
	C95.038055,6.294352 95.679214,6.757552 96.320381,7.220752 
	C93.891754,12.238403 91.463135,17.256054 88.936996,22.614256 
	C86.685913,26.262163 84.802238,29.796139 82.282990,32.796452 
	C80.629509,34.765678 77.473892,37.625805 76.033592,37.119724 
	C73.848221,36.351841 72.568794,33.005665 70.930069,30.034878 
	C72.008141,27.241547 73.060669,25.168114 74.113190,23.094679 
	C74.113190,23.094679 74.150742,23.103275 74.169601,23.110653 
z"/>
<path fill="#7C54CF" opacity="1.000000" stroke="none" 
	d="
M29.222836,101.527832 
	C29.761696,94.237534 29.932468,87.125343 31.185478,80.209236 
	C32.400490,73.502846 34.727356,66.997887 36.883453,60.227692 
	C32.687450,74.319283 30.579573,88.924316 30.994385,104.325089 
	C30.391634,103.769135 29.859936,102.780441 29.222836,101.527832 
z"/>
<path fill="#093EB9" opacity="1.000000" stroke="none" 
	d="
M73.765732,23.133869 
	C73.060669,25.168114 72.008141,27.241547 70.855606,29.663300 
	C69.279724,30.565546 67.803864,31.119476 66.044922,31.887596 
	C65.510681,30.970907 65.259521,29.840027 65.036644,28.357838 
	C66.568695,27.553568 68.222923,27.355284 69.535995,26.579546 
	C70.992546,25.719042 72.137589,24.331255 73.765732,23.133869 
z"/>
<path fill="#093EB9" opacity="1.000000" stroke="none" 
	d="
M67.847603,38.748482 
	C64.229736,39.114349 65.034096,36.703564 65.572250,34.220833 
	C66.438744,35.401318 67.128090,36.894268 67.847603,38.748482 
z"/>
<path fill="#093EB9" opacity="1.000000" stroke="none" 
	d="
M64.713348,27.294556 
	C63.573906,28.082542 62.259853,28.578335 60.641991,29.129524 
	C60.789429,26.631086 62.019531,25.576233 64.713348,27.294556 
z"/>
<path fill="#093EB9" opacity="1.000000" stroke="none" 
	d="
M55.653667,34.257385 
	C54.592632,34.201538 53.773193,33.991768 52.537479,33.705223 
	C53.552341,33.131557 54.983482,32.634659 56.765388,32.200943 
	C56.709190,32.877239 56.302227,33.490353 55.653667,34.257385 
z"/>
<path fill="#093EB9" opacity="1.000000" stroke="none" 
	d="
M70.670464,39.991104 
	C70.039543,40.034584 69.193779,39.821133 68.137108,39.355072 
	C68.769341,39.313034 69.612480,39.523602 70.670464,39.991104 
z"/>
<path fill="#093EB9" opacity="1.000000" stroke="none" 
	d="
M103.909546,73.745743 
	C103.587311,73.595551 103.207253,73.150482 102.775055,72.408485 
	C103.099182,72.558006 103.475456,73.004440 103.909546,73.745743 
z"/>
<path fill="#093EB9" opacity="1.000000" stroke="none" 
	d="
M84.917519,52.585243 
	C84.579712,52.477737 84.150688,52.083729 83.621613,51.405945 
	C83.956474,51.514359 84.391388,51.906551 84.917519,52.585243 
z"/>
<path fill="#093EB9" opacity="1.000000" stroke="none" 
	d="
M74.703171,41.973976 
	C74.321404,42.039028 73.749428,41.871140 73.013084,41.450203 
	C73.403465,41.378448 73.958214,41.559746 74.703171,41.973976 
z"/>
<path fill="#093EB9" opacity="1.000000" stroke="none" 
	d="
M72.690353,40.979237 
	C72.306915,41.047409 71.732231,40.880367 70.987549,40.462273 
	C71.378067,40.388817 71.938599,40.566418 72.690353,40.979237 
z"/>
<path fill="#093EB9" opacity="1.000000" stroke="none" 
	d="
M75.830162,42.769665 
	C75.674156,42.836468 75.349060,42.727905 74.915680,42.375931 
	C75.123062,42.228943 75.407616,42.382870 75.830162,42.769665 
z"/>
<path fill="#093EB9" opacity="1.000000" stroke="none" 
	d="
M77.691315,43.928917 
	C77.507423,43.993332 77.107964,43.827709 76.539261,43.375656 
	C76.738586,43.292446 77.107162,43.495663 77.691315,43.928917 
z"/>
<path fill="#093EB9" opacity="1.000000" stroke="none" 
	d="
M79.786263,46.001404 
	C79.624672,46.016125 79.340202,45.798717 78.981834,45.315231 
	C79.159752,45.289196 79.411575,45.529236 79.786263,46.001404 
z"/>
<path fill="#093EB9" opacity="1.000000" stroke="none" 
	d="
M82.778824,50.046425 
	C82.608017,50.055962 82.327965,49.826591 82.001602,49.322197 
	C82.193390,49.300625 82.431488,49.554070 82.778824,50.046425 
z"/>
<path fill="#093EB9" opacity="1.000000" stroke="none" 
	d="
M26.673714,52.216019 
	C26.772511,52.370735 26.628023,52.630779 26.224026,52.984982 
	C26.150036,52.840412 26.305338,52.587814 26.673714,52.216019 
z"/>
<path fill="#093EB9" opacity="1.000000" stroke="none" 
	d="
M86.827370,54.881638 
	C86.667816,54.905754 86.387627,54.723877 86.057457,54.287971 
	C86.283455,54.201103 86.516541,54.415001 86.827370,54.881638 
z"/>
<path fill="#093EB9" opacity="1.000000" stroke="none" 
	d="
M43.021980,36.155762 
	C43.055706,36.345570 42.803417,36.558464 42.258072,36.774254 
	C42.240986,36.596474 42.497967,36.397038 43.021980,36.155762 
z"/>
<path fill="#093EB9" opacity="1.000000" stroke="none" 
	d="
M57.927055,31.241795 
	C57.978359,31.421085 57.830364,31.739988 57.406204,32.101349 
	C57.278408,31.849792 57.477650,31.595661 57.927055,31.241795 
z"/>
<path fill="#093EB9" opacity="1.000000" stroke="none" 
	d="
M89.753212,58.017509 
	C89.578789,58.048500 89.268227,57.843662 88.874115,57.364624 
	C89.066071,57.320847 89.341568,57.551266 89.753212,58.017509 
z"/>
<path fill="#093EB9" opacity="1.000000" stroke="none" 
	d="
M90.722427,59.034309 
	C90.538383,59.073277 90.222740,58.874668 89.830399,58.397427 
	C90.032753,58.344776 90.311783,58.570751 90.722427,59.034309 
z"/>
<path fill="#093EB9" opacity="1.000000" stroke="none" 
	d="
M91.728699,60.129585 
	C91.541534,60.157761 91.219009,59.929218 90.807785,59.408466 
	C91.010506,59.368458 91.301926,59.620659 91.728699,60.129585 
z"/>
<path fill="#093EB9" opacity="1.000000" stroke="none" 
	d="
M58.925209,30.241066 
	C58.971172,30.419765 58.815693,30.735302 58.382172,31.087742 
	C58.263992,30.836998 58.470535,30.588081 58.925209,30.241066 
z"/>
<path fill="#093EB9" opacity="1.000000" stroke="none" 
	d="
M102.758804,72.031219 
	C102.586731,72.043060 102.311333,71.816856 101.994522,71.317474 
	C102.187225,71.293922 102.421349,71.543556 102.758804,72.031219 
z"/>
<path fill="#093EB9" opacity="1.000000" stroke="none" 
	d="
M59.982082,29.323830 
	C60.016537,29.505865 59.834850,29.795980 59.379238,30.108932 
	C59.273624,29.849493 59.493832,29.616205 59.982082,29.323830 
z"/>
<path fill="#093EB9" opacity="1.000000" stroke="none" 
	d="
M104.764877,75.426376 
	C104.579185,75.395729 104.300842,75.049522 103.989975,74.362511 
	C104.195694,74.384743 104.433960,74.747787 104.764877,75.426376 
z"/>
<path fill="#214AAD" opacity="1.000000" stroke="none" 
	d="
M67.572098,56.887825 
	C68.219246,56.358818 68.785660,55.781162 69.032501,55.895206 
	C70.926529,56.770252 72.758430,57.779743 74.609634,58.747475 
	C73.656143,59.610043 72.744614,61.140995 71.740913,61.204025 
	C69.201515,61.363483 66.490761,61.000565 67.572098,56.887825 
z"/>
<path fill="#7C54CF" opacity="1.000000" stroke="none" 
	d="
M37.426754,59.973274 
	C37.808460,58.497536 38.463768,56.836025 39.433548,55.047295 
	C39.065464,56.542549 38.382912,58.165024 37.426754,59.973274 
z"/>
</svg>